<svg width="61" height="46" viewBox="0 0 61 46" fill="none" xmlns="http://www.w3.org/2000/svg">
<path d="M12.2267 10.6068C9.84019 14.1268 8.44202 18.4046 8.44202 23.0001C8.44202 35.149 18.1569 45.0001 30.1378 45.0001C42.1186 45.0001 51.8335 35.149 51.8335 23.0001C51.8335 10.8512 42.1186 1.00012 30.1378 1.00012C25.6781 1.00012 21.5077 2.36901 18.0605 4.71568" stroke="#F47920" stroke-width="2" stroke-linecap="round" stroke-linejoin="round"/>
<path d="M53.8586 17.5988C56.8719 17.5988 59.3067 20.0676 59.3067 23.1232C59.3067 26.1788 56.8719 28.6476 53.8586 28.6476" stroke="#F47920" stroke-width="2" stroke-linecap="round" stroke-linejoin="round"/>
<path d="M6.75468 17.5988C3.74139 17.5988 1.30664 20.0676 1.30664 23.1232C1.30664 26.1788 3.74139 28.6476 6.75468 28.6476" stroke="#F47920" stroke-width="2" stroke-linecap="round" stroke-linejoin="round"/>
<path d="M31.8976 1.39027C31.1503 1.07249 30.3307 1.92805 30.3066 2.75916C30.2825 3.59027 30.7646 4.3236 31.1986 5.03249C31.9459 6.23027 32.6449 7.52583 32.7896 8.9436C32.9342 10.3614 32.3316 11.9258 31.078 12.5614C30.3548 12.928 29.4388 12.928 28.7156 12.5614C27.9924 12.1947 27.438 11.4858 27.2451 10.6792" stroke="#F47920" stroke-width="2" stroke-linecap="round" stroke-linejoin="round"/>
</svg>
