<svg width="48" height="47" viewBox="0 0 48 47" fill="none" xmlns="http://www.w3.org/2000/svg">
<path d="M42.6324 13.369V4.70306C42.6324 2.67159 40.9977 1.00012 38.9544 1.00012H9.04548C7.00217 1.00012 5.34198 2.67159 5.34198 4.70306V13.2147" stroke="#F47920" stroke-width="2" stroke-linecap="round" stroke-linejoin="round"/>
<path d="M6.13391 46.0004V38.5431" stroke="#F47920" stroke-width="2" stroke-linecap="round" stroke-linejoin="round"/>
<path d="M41.8661 38.5431V46.0004" stroke="#F47920" stroke-width="2" stroke-linecap="round" stroke-linejoin="round"/>
<path d="M9.60742 17.715H37.7029" stroke="#F47920" stroke-width="2" stroke-linecap="round" stroke-linejoin="round"/>
<path d="M23.9872 17.7921V27.0237" stroke="#F47920" stroke-width="2" stroke-linecap="round" stroke-linejoin="round"/>
<path d="M1 32.8625V38.2883H47V18.4364C47 15.8906 45.0589 13.8077 42.6835 13.8077C40.3082 13.8077 38.367 15.8906 38.367 18.4364V28.0538L9.60744 28.0023V18.4364C9.60744 15.8906 7.6663 13.8077 5.29095 13.8077C2.9156 13.8077 1 15.8906 1 18.4364V24.0937" stroke="#F47920" stroke-width="2" stroke-linecap="round" stroke-linejoin="round"/>
</svg>
