<svg width="51" height="52" viewBox="0 0 51 52" fill="none" xmlns="http://www.w3.org/2000/svg">
<path d="M16.9209 45.0244L14.1936 47.7519C12.552 49.3937 9.90419 49.3937 8.26256 47.7519L3.86721 43.3561C2.22558 41.7143 2.22558 39.0663 3.86721 37.4245L6.59444 34.697" stroke="#F47920" stroke-width="2" stroke-linecap="round" stroke-linejoin="round"/>
<path d="M2.84586 25.2668L6.40318 21.7092L29.919 45.2273L26.3616 48.785C24.7889 50.3578 22.2426 50.3578 20.6699 48.785L2.86458 30.9778C1.29187 29.405 1.29187 26.8584 2.86458 25.2856L2.84586 25.2668Z" stroke="#F47920" stroke-width="2" stroke-linecap="round" stroke-linejoin="round"/>
<path d="M48.1541 26.9962L44.5968 30.5539L21.081 7.03577L24.6383 3.4781C26.2111 1.90523 28.7574 1.90523 30.3301 3.4781L48.1541 21.3039C49.7269 22.8768 49.7269 25.4234 48.1541 26.9962Z" stroke="#F47920" stroke-width="2" stroke-linecap="round" stroke-linejoin="round"/>
<path d="M44.405 17.537L47.1323 14.8095C48.7739 13.1677 48.7739 10.5196 47.1323 8.8778L42.7369 4.48202C41.0953 2.84022 38.4475 2.84022 36.8058 4.48202L34.0786 7.20952" stroke="#F47920" stroke-width="2" stroke-linecap="round" stroke-linejoin="round"/>
<path d="M29.3392 15.2604L24.8909 19.7092" stroke="#F47920" stroke-width="2" stroke-linecap="round" stroke-linejoin="round"/>
<path d="M22.1372 36.5236L36.3559 22.277" stroke="#F47920" stroke-width="2" stroke-linecap="round" stroke-linejoin="round"/>
<path d="M18.4836 26.1169L15.1208 29.5064" stroke="#F47920" stroke-width="2" stroke-linecap="round" stroke-linejoin="round"/>
</svg>
