<svg width="48" height="49" viewBox="0 0 48 49" fill="none" xmlns="http://www.w3.org/2000/svg">
<path d="M38.0248 15.8943C38.0248 18.6017 35.8258 20.7982 33.1154 20.7982C30.4051 20.7982 28.2061 18.6017 28.2061 15.8943C28.2061 13.1869 30.4051 10.9904 33.1154 10.9904C35.8258 10.9904 38.0248 13.1869 38.0248 15.8943Z" stroke="#F47920" stroke-width="2" stroke-linecap="round" stroke-linejoin="round"/>
<path d="M18.771 9.32982C17.3902 11.603 16.5976 14.2848 16.5976 17.1199C16.5976 19.4187 17.1089 21.6152 18.0295 23.5819L1 40.8734V47.9484H12.4041V41.7674H18.592V35.2543H25.9049V31.1677C27.7204 31.9339 29.7148 32.3426 31.786 32.3426C40.1729 32.3426 47 25.5486 47 17.1455C47 8.74237 40.1984 1.94836 31.786 1.94836C29.4336 1.94836 27.209 2.51027 25.2146 3.4553" stroke="#F47920" stroke-width="2" stroke-linecap="round" stroke-linejoin="round"/>
</svg>
