<svg width="48" height="45" viewBox="0 0 48 45" fill="none" xmlns="http://www.w3.org/2000/svg">
<path d="M13.6756 24.3018C20.78 24.3018 20.7544 30.9585 20.7544 30.9585C20.3967 44.656 9.17778 43.1967 9.17778 43.1967C1 42.8638 1 34.5685 1 34.5685V30.6001C1.99667 24.3018 8.64111 24.3018 8.64111 24.3018H39.3589C39.3589 24.3018 46.0033 24.3018 47 30.6001V34.5685C47 34.5685 47 42.8638 38.8222 43.1967C38.8222 43.1967 27.6033 44.656 27.2456 30.9585C27.2456 30.9585 27.2456 24.3018 34.3244 24.3018" stroke="#F47920" stroke-width="2" stroke-linecap="round" stroke-linejoin="round"/>
<path d="M46.9234 30.0613L42.4256 6.48104C41.9145 4.40721 40.5345 2.76863 38.6434 1.87253C36.7523 1.00203 34.6056 1.02763 32.7401 1.97494L29.2645 3.71593" stroke="#F47920" stroke-width="2" stroke-linecap="round" stroke-linejoin="round"/>
<path d="M18.8124 3.71722L15.3368 1.97622C13.4713 1.05452 11.3246 1.00332 9.43348 1.87381C7.54237 2.74431 6.16237 4.40849 5.65126 6.48233L4.98682 9.93871" stroke="#F47920" stroke-width="2" stroke-linecap="round" stroke-linejoin="round"/>
<path d="M3.32571 18.5165L1.12793 30.0634" stroke="#F47920" stroke-width="2" stroke-linecap="round" stroke-linejoin="round"/>
<path d="M21.3677 32.7255H26.811" stroke="#F47920" stroke-width="2" stroke-linecap="round" stroke-linejoin="round"/>
</svg>
