<svg width="49" height="35" viewBox="0 0 49 35" fill="none" xmlns="http://www.w3.org/2000/svg">
<path d="M24.5001 34H46.8903C47.504 34 48.0001 33.502 48.0001 32.886V23.9611H47.9087C44.4098 23.9611 41.5637 21.1041 41.5637 17.5917C41.5637 14.0794 44.4098 11.2224 47.9087 11.2224H48.0001V2.11398C48.0001 1.49801 47.504 1 46.8903 1H16.1053" stroke="#F47920" stroke-width="2" stroke-linecap="round" stroke-linejoin="round"/>
<path d="M48 11.2227H47.9086C44.4097 11.2227 41.5636 14.0797 41.5636 17.592C41.5636 21.1043 44.4097 23.9613 47.9086 23.9613H48" stroke="#F47920" stroke-width="2" stroke-linecap="round" stroke-linejoin="round"/>
<path d="M24.5 34H2.10972C1.49611 34 1 33.502 1 32.886V23.9611H1.09139C4.59028 23.9611 7.43639 21.1041 7.43639 17.5917C7.43639 14.0794 4.59028 11.2224 1.09139 11.2224H1V2.11398C1 1.49801 1.49611 1 2.10972 1H8.27194" stroke="#F47920" stroke-width="2" stroke-linecap="round" stroke-linejoin="round"/>
<path d="M1 11.2227H1.09139C4.59028 11.2227 7.43639 14.0797 7.43639 17.592C7.43639 21.1043 4.59028 23.9613 1.09139 23.9613H1" stroke="#F47920" stroke-width="2" stroke-linecap="round" stroke-linejoin="round"/>
<path d="M18.5073 13.6084H30.4923" stroke="#F47920" stroke-width="2" stroke-linecap="round" stroke-linejoin="round"/>
<path d="M18.5073 13.6084H30.4923" stroke="#F47920" stroke-width="2" stroke-linecap="round" stroke-linejoin="round"/>
<path d="M18.5073 21.3948H30.4923" stroke="#F47920" stroke-width="2" stroke-linecap="round" stroke-linejoin="round"/>
</svg>
